<svg width="34" height="34" viewBox="0 0 34 34" fill="none" xmlns="http://www.w3.org/2000/svg">
<g clip-path="url(#clip0_27108_148888)">
<rect width="34" height="34" rx="8" fill="url(#paint0_linear_27108_148888)"/>
<path d="M24.4944 14.5772C24.8328 12.3149 23.1102 11.0988 20.7547 10.2876L21.5188 7.22305L19.6532 6.75822L18.9093 9.74206C18.4188 9.61974 17.9151 9.50449 17.4145 9.39024L18.1638 6.38671L16.2993 5.92188L15.5347 8.9854C15.1288 8.893 14.7302 8.80168 14.3434 8.70546L14.3456 8.69582L11.7728 8.05341L11.2765 10.0459C11.2765 10.0459 12.6606 10.3631 12.6315 10.3826C13.387 10.5712 13.5236 11.0712 13.5009 11.4676L12.6305 14.9588C12.6825 14.972 12.75 14.9911 12.8244 15.021C12.7622 15.0056 12.696 14.9887 12.6272 14.9723L11.4072 19.863C11.3149 20.0925 11.0805 20.4369 10.5523 20.3061C10.571 20.3332 9.19629 19.9677 9.19629 19.9677L8.27002 22.1031L10.6979 22.7083C11.1496 22.8215 11.5922 22.94 12.0281 23.0515L11.256 26.1511L13.1195 26.616L13.8841 23.5492C14.3932 23.6874 14.8872 23.8149 15.3709 23.935L14.6089 26.9873L16.4747 27.4521L17.2466 24.3583C20.428 24.9603 22.8202 24.7176 23.827 21.8404C24.6384 19.5239 23.7867 18.1877 22.1129 17.3164C23.332 17.0353 24.2502 16.2336 24.495 14.5775L24.4945 14.5771L24.4944 14.5772ZM20.2317 20.5539C19.6552 22.8704 15.7544 21.6182 14.4898 21.3042L15.5143 17.1976C16.7788 17.5133 20.8343 18.138 20.2318 20.5539H20.2317ZM20.8087 14.5437C20.2828 16.6508 17.0361 15.5803 15.983 15.3178L16.9118 11.5934C17.965 11.8559 21.3566 12.3458 20.8089 14.5437H20.8087Z" fill="white"/>
</g>
<defs>
<linearGradient id="paint0_linear_27108_148888" x1="36" y1="34" x2="1.5" y2="4.5" gradientUnits="userSpaceOnUse">
<stop offset="0.254808" stop-color="#DF5665"/>
<stop offset="1" stop-color="#F6911D"/>
</linearGradient>
<clipPath id="clip0_27108_148888">
<rect width="34" height="34" rx="8" fill="white"/>
</clipPath>
</defs>
</svg>
