<svg width="36" height="36" viewBox="0 0 36 36" fill="none" xmlns="http://www.w3.org/2000/svg">
<rect width="36" height="36" rx="8.47059" fill="url(#paint0_linear_18842_191724)"/>
<path d="M21.3094 9.16504C21.3415 9.21943 21.299 9.28666 21.2359 9.28666C19.9571 9.28666 18.9175 10.2991 18.8931 11.5572C18.4552 11.4755 18.0015 11.4693 17.5533 11.5449C17.5223 10.2925 16.4854 9.28666 15.2108 9.28666C15.1476 9.28666 15.1051 9.21938 15.1372 9.16495C15.7562 8.11656 16.9065 7.41211 18.2233 7.41211C19.5401 7.41211 20.6904 8.1166 21.3094 9.16504Z" fill="white"/>
<path d="M25.0969 16.9462C25.5319 17.0779 25.9418 16.6956 25.7776 16.2718C24.5576 13.1223 20.9469 11.8319 18.2058 11.8319C15.4594 11.8319 11.7681 13.164 10.6276 16.2914C10.4741 16.7125 10.8829 17.0822 11.3114 16.9509L17.8803 14.938C18.0699 14.8799 18.2725 14.8796 18.4623 14.9371L25.0969 16.9462Z" fill="white"/>
<path d="M10.5635 17.5525L17.8858 15.3318C18.0743 15.2746 18.2755 15.2744 18.464 15.3313L25.8324 17.5536C26.4477 17.7392 26.8687 18.306 26.8687 18.9486V25.6443C26.8402 27.2786 25.372 28.5886 23.7382 28.5886H21.0245C20.7563 28.5886 20.539 28.3716 20.539 28.1034V25.7558C20.539 24.8314 21.0861 23.9948 21.9326 23.6245C23.0674 23.1281 24.4099 22.4567 24.6624 21.1093C24.7439 20.6744 24.4604 20.255 24.0266 20.1687C22.9298 19.9507 21.7139 20.0349 20.6856 20.4948C19.5183 21.0169 19.213 21.8854 19.0999 23.0518L18.9629 24.3083C18.921 24.6923 18.561 24.9865 18.1749 24.9865C17.7754 24.9865 17.4759 24.6823 17.4326 24.285L17.2981 23.0518C17.2013 22.0527 17.0258 21.0823 15.993 20.6203C14.8148 20.0934 13.6309 19.9184 12.3714 20.1687C11.9377 20.255 11.6541 20.6744 11.7356 21.1093C11.9903 22.4684 13.3223 23.1244 14.4654 23.6245C15.3119 23.9948 15.859 24.8314 15.859 25.7558V28.1029C15.859 28.3712 15.6419 28.5886 15.3736 28.5886H12.6598C11.026 28.5886 9.55783 27.2786 9.5293 25.6443V18.9469C9.5293 18.305 9.94928 17.7388 10.5635 17.5525Z" fill="white"/>
<defs>
<linearGradient id="paint0_linear_18842_191724" x1="-7.16406" y1="-4.83333" x2="37.6804" y2="30.9769" gradientUnits="userSpaceOnUse">
<stop stop-color="#0933C0"/>
<stop offset="1" stop-color="#587EFF"/>
</linearGradient>
</defs>
</svg>
