<svg width="145" height="145" viewBox="0 0 145 145" fill="none" xmlns="http://www.w3.org/2000/svg">
	<mask id="a" style="mask-type:alpha" maskUnits="userSpaceOnUse" x="0" y="0" width="145" height="145">
		<path fill="#D9D9D9" d="M0 0h145v145H0z"/>
	</mask>
	<g mask="url(#a)">
		<path fill="#1D238F" d="M-27-17h208v206H-27z"/>
		<path fill-rule="evenodd" clip-rule="evenodd" d="M200-35H-56v242h256zM86.907 116.105V90.243l.035.043L135.5 146.5c-8.083 8.377-19.071 13.751-29.788 18.295a86.5 86.5 0 0 1-33.883 6.863c-26.362 0-55.905-7.888-71.829-26.443-13.044-15.2-15-38.828-15-60.434 0-3.855.256-7.71.764-11.53h49.432L10.354 97.997a17 17 0 0 0-3.17 4.267 11.24 11.24 0 0 0-1.258 5.232c0 3.716 1.22 6.716 3.625 8.926 2.383 2.188 6.243 3.252 11.804 3.252h61.983a3.42 3.42 0 0 0 3.342-2.177c.172-.443.25-.917.227-1.392M60.17 57.587c2.153 2.205 3.243 5.448 3.243 9.65a13.7 13.7 0 0 1-.869 5.08 11.3 11.3 0 0 1-2.509 3.838l-24.503 24.512h32.374V-2C49.45-1.179 10.204-12.594-3.5-2c-12.661 9.788-.257 40.997-5.98 56.244h58.51c5.296 0 8.943 1.094 11.14 3.343m27.018 19.719-.147.182-.135.182V-.789C106.621 2.667 135.26-16.363 148-2c13.605 15.337 10.658 64.663 10.658 86.782.031 16.251-3.543 33.438-12.158 47.218l-41.038-48.065 31.328-27.451.117-.108c1.103-1.103 1.194-2.189 1.077-2.927-.204-1.167-1.212-2.348-3.013-2.348h-15.117a4.78 4.78 0 0 0-3.704 1.65z" fill="#fff"/>
	</g>
</svg>
