<?xml version="1.0" encoding="utf-8"?>
<!-- Generator: Adobe Illustrator 26.0.1, SVG Export Plug-In . SVG Version: 6.00 Build 0)  -->
<svg version="1.1" id="Layer_1" xmlns="http://www.w3.org/2000/svg" xmlns:xlink="http://www.w3.org/1999/xlink" x="0px" y="0px"
	 viewBox="0 0 225 225" style="enable-background:new 0 0 225 225;" xml:space="preserve">
<style type="text/css">
	.st0{fill:url(#SVGID_1_);}
	.st1{fill:url(#SVGID_00000057150064886170855670000000145210974740042888_);}
	.st2{fill:url(#SVGID_00000002384431425952250320000002499568388717491587_);}
	.st3{fill:#333333;}
</style>
<g>
	<g>
		
			<linearGradient id="SVGID_1_" gradientUnits="userSpaceOnUse" x1="97.0261" y1="27.242" x2="97.9421" y2="244.1169" gradientTransform="matrix(1 0 0 -1 0 225.8898)">
			<stop  offset="0" style="stop-color:#5286D8"/>
			<stop  offset="1" style="stop-color:#1B2395"/>
		</linearGradient>
		<path class="st0" d="M133.4,102.1v28.6c0,0.5-0.1,1.1-0.3,1.5c-0.2,0.5-0.5,0.9-0.9,1.3c-0.4,0.4-0.8,0.7-1.3,0.9
			c-0.5,0.2-1,0.3-1.5,0.3H60.8c-6.2,0-10.4-1.2-13.1-3.6c-1.3-1.3-2.4-2.8-3.1-4.5c-0.7-1.7-1-3.5-0.9-5.4c0-2,0.5-4,1.4-5.8
			c0.9-1.7,2.1-3.3,3.5-4.7l27.5-27.4H5.8c-3.7,14.7-4.3,30-1.8,45s8.1,29.2,16.3,41.9H192L133.4,102.1L133.4,102.1z"/>
		
			<linearGradient id="SVGID_00000158710099495530489950000002956974285556857756_" gradientUnits="userSpaceOnUse" x1="168.5345" y1="25.9658" x2="182.8845" y2="242.235" gradientTransform="matrix(1 0 0 -1 0 225.8898)">
			<stop  offset="0" style="stop-color:#5286D8"/>
			<stop  offset="1" style="stop-color:#1B2395"/>
		</linearGradient>
		<path style="fill:url(#SVGID_00000158710099495530489950000002956974285556857756_);" d="M133.4,2.1v86l0.2-0.2l0.2-0.2l32.1-27.2
			c0.5-0.6,1.1-1.1,1.8-1.4c0.7-0.3,1.5-0.5,2.3-0.5h16.7c0.8,0,1.5,0.2,2.2,0.7c0.6,0.5,1,1.2,1.2,1.9c0.1,0.6,0,1.2-0.2,1.8
			c-0.2,0.6-0.6,1.1-1,1.5l-0.1,0.1L154,95.1l56.2,65.6c7.9-15.2,12.1-32,12.3-49.1c0.2-17.1-3.5-34-11-49.4
			c-7.5-15.4-18.4-28.8-31.9-39.3C166,12.5,150.2,5.4,133.4,2.1L133.4,2.1z"/>
		
			<linearGradient id="SVGID_00000075869126623840014470000000231465753252503427_" gradientUnits="userSpaceOnUse" x1="59.8755" y1="28.0077" x2="65.8602" y2="244.7849" gradientTransform="matrix(1 0 0 -1 0 225.8898)">
			<stop  offset="0" style="stop-color:#5286D8"/>
			<stop  offset="1" style="stop-color:#1B2395"/>
		</linearGradient>
		<path style="fill:url(#SVGID_00000075869126623840014470000000231465753252503427_);" d="M103.8,65.9c2.4,2.4,3.6,6,3.6,10.7
			c0,1.9-0.3,3.8-1,5.6c-0.6,1.6-1.6,3-2.8,4.2l-27.1,27.1h35.9V0.1C91.7,0.2,71.5,6,54,17C36.5,28,22.4,43.6,13.4,62.2h78
			C97.3,62.2,101.4,63.4,103.8,65.9z"/>
		<path class="st3" d="M24.5,224.8c-2.5,0-4.2-0.4-5.2-1.3c-0.5-0.5-0.9-1-1.1-1.7c-0.3-0.6-0.4-1.3-0.3-2c0-0.7,0.2-1.5,0.5-2.1
			c0.4-0.7,0.8-1.3,1.4-1.9l13.8-13.7c0.1-0.1,0.1-0.2,0.2-0.2c0-0.1,0.1-0.2,0.1-0.3c0-0.4-0.3-0.5-1-0.5H19.2c-0.1,0-0.2,0-0.2,0
			c-0.1,0-0.1-0.1-0.2-0.1c-0.1-0.1-0.1-0.1-0.1-0.2c0-0.1,0-0.2,0-0.2v-6.1c0-0.1,0-0.2,0-0.2c0-0.1,0.1-0.1,0.1-0.2
			c0.1-0.1,0.1-0.1,0.2-0.1c0.1,0,0.2,0,0.2,0h19.5c2.3,0,3.9,0.4,4.8,1.3c1,1.1,1.4,2.6,1.3,4.1c0,0.7-0.1,1.5-0.4,2.1
			c-0.2,0.6-0.6,1.1-1,1.5l-13.4,13.4c-0.2,0.2-0.4,0.5-0.4,0.8c0,0.3,0.2,0.5,0.7,0.5h26.1c0.1,0,0.2,0,0.2,0
			c0.1,0,0.1,0.1,0.2,0.1c0.1,0.1,0.1,0.1,0.1,0.2c0,0.1,0,0.2,0,0.2v6.1c0,0.1,0,0.2,0,0.2s-0.1,0.1-0.1,0.2
			c-0.1,0.1-0.1,0.1-0.2,0.1c-0.1,0-0.2,0-0.2,0L24.5,224.8z"/>
		<path class="st3" d="M50.8,182.2h6.1c0.1,0,0.2,0,0.2,0c0.1,0,0.1,0.1,0.2,0.1c0.1,0.1,0.1,0.1,0.1,0.2c0,0.1,0,0.2,0,0.2v41.5
			c0,0.1,0,0.2,0,0.2c0,0.1-0.1,0.1-0.1,0.2c-0.1,0.1-0.1,0.1-0.2,0.1c-0.1,0-0.2,0-0.2,0h-6.1c-0.1,0-0.2,0-0.2,0
			c-0.1,0-0.1-0.1-0.2-0.1c-0.1-0.1-0.1-0.1-0.1-0.2c0-0.1,0-0.2,0-0.2v-41.5c0-0.1,0-0.2,0-0.2c0-0.1,0.1-0.1,0.1-0.2
			c0.1-0.1,0.1-0.1,0.2-0.1C50.6,182.1,50.7,182.1,50.8,182.2L50.8,182.2z M69.1,194.3c0.1-0.2,0.3-0.3,0.5-0.4
			c0.2-0.1,0.4-0.1,0.6-0.1h8.4c0.2,0,0.3,0.1,0.4,0.2c0,0.1-0.1,0.3-0.2,0.4l-12.1,12.7c-0.1,0.1-0.2,0.2-0.3,0.3
			c-0.1,0.1-0.1,0.2-0.2,0.3c0,0.1,0.1,0.3,0.2,0.4c0.1,0.1,0.2,0.2,0.3,0.4l12.8,16c0.2,0.3,0.2,0.4-0.2,0.4h-8.4
			c-0.2,0-0.4,0-0.6-0.1c-0.2-0.1-0.4-0.2-0.5-0.4l-11.3-14.1c-0.3-0.4-0.6-0.8-0.8-1.2c-0.2-0.4-0.3-0.9-0.3-1.3
			c0-0.4,0.1-0.8,0.3-1.2c0.2-0.5,0.5-0.9,0.8-1.3L69.1,194.3z"/>
		<path class="st3" d="M108,217.7v6.5c0,0.1,0,0.2,0,0.2c0,0.1-0.1,0.1-0.1,0.2c-0.1,0.1-0.1,0.1-0.2,0.1c-0.1,0-0.2,0-0.2,0H90.2
			c-0.2,0-0.5,0-0.7-0.1c-3.3-0.3-5.6-1.2-7-2.9c-1.4-1.6-2.1-4.1-2.1-7.5v-31.7c0-0.1,0-0.2,0-0.2s0.1-0.1,0.1-0.2
			c0.1-0.1,0.1-0.1,0.2-0.1c0.1,0,0.2,0,0.2,0h7.4c0.1,0,0.2,0,0.2,0c0.1,0,0.1,0.1,0.2,0.1c0.1,0.1,0.1,0.1,0.1,0.2s0,0.2,0,0.2
			v32.4c0,1.3,0.8,2,2.3,2h16.1c0.1,0,0.2,0,0.2,0c0.1,0,0.1,0.1,0.2,0.1c0.1,0.1,0.1,0.1,0.1,0.2C108,217.5,108,217.6,108,217.7
			L108,217.7z"/>
		<path class="st3" d="M117.3,213.4c0,0.6,0.2,1.1,0.5,1.6c0.3,0.5,0.8,1,1.3,1.3c0.6,0.4,1.2,0.7,1.9,0.9c0.8,0.2,1.6,0.3,2.4,0.3
			H140c0.1,0,0.2,0,0.2,0c0.1,0,0.1,0.1,0.2,0.1c0.1,0.1,0.1,0.1,0.1,0.2c0,0.1,0,0.2,0,0.2v6.1c0,0.1,0,0.2,0,0.2
			c0,0.1-0.1,0.1-0.1,0.2s-0.1,0.1-0.2,0.1c-0.1,0-0.2,0-0.2,0h-12.5c-2.8,0.1-5.6-0.2-8.4-0.8c-2-0.4-3.9-1.3-5.4-2.6
			c-1.4-1.2-2.4-2.8-2.9-4.6c-0.6-2.2-0.9-4.5-0.9-6.7c-0.1-2.7,0.4-5.4,1.5-7.9c0.9-1.9,2.2-3.6,3.8-5c1.6-1.2,3.4-2.1,5.3-2.6
			c1.9-0.5,3.9-0.7,5.9-0.7c2.2,0,4.3,0.2,6.4,0.9c1.6,0.5,3.1,1.3,4.4,2.4c1.1,1.1,2,2.4,2.5,3.8c0.6,1.6,0.8,3.3,0.8,5.1v6.2
			c0,0.1,0,0.2,0,0.2c0,0.1-0.1,0.1-0.1,0.2c-0.1,0.1-0.1,0.1-0.2,0.1c-0.1,0-0.2,0-0.2,0h-22c-0.1,0-0.2,0-0.2,0
			c-0.1,0-0.1,0.1-0.2,0.1c-0.1,0.1-0.1,0.1-0.1,0.2C117.3,213.2,117.3,213.3,117.3,213.4z M133.2,205.8c0.1,0,0.2,0,0.2,0
			c0.1,0,0.1-0.1,0.2-0.1c0.1-0.1,0.1-0.1,0.1-0.2c0-0.1,0-0.2,0-0.2c0-0.7-0.2-1.5-0.6-2.1c-0.4-0.6-0.9-1.2-1.5-1.5
			c-1.8-1-3.8-1.5-5.8-1.3c-0.9,0-1.8,0.1-2.6,0.4c-1,0.2-1.9,0.6-2.8,1c-0.8,0.4-1.6,0.9-2.2,1.5c-0.3,0.3-0.5,0.6-0.7,0.9
			c-0.2,0.4-0.2,0.7-0.2,1.1c0,0.1,0,0.2,0,0.2c0,0.1,0.1,0.1,0.1,0.2c0.1,0.1,0.1,0.1,0.2,0.1c0.1,0,0.2,0,0.2,0L133.2,205.8z"/>
	</g>
	<path class="st3" d="M152.8,222.9c0,1.3-0.6,1.9-1.7,1.9h-4c-0.3,0-0.5,0-0.7-0.2c-0.2-0.1-0.4-0.3-0.5-0.5
		c-0.3-0.5-0.4-1.1-0.4-1.7v-24.7c0-0.5,0.1-1,0.3-1.5c0.2-0.5,0.5-0.9,0.9-1.2c0.4-0.4,0.9-0.7,1.4-0.9c0.5-0.2,1.1-0.3,1.7-0.3
		h13.5c1.4,0,2.7,0.3,4,0.9c1.2,0.6,2.3,1.3,3.2,2.3c0.9,0.9,1.7,2.1,2.2,3.3c0.5,1.2,0.8,2.5,0.8,3.8v20.2c0,0.4-0.2,0.6-0.7,0.6
		h-6c-0.1,0-0.2,0-0.2,0c-0.1,0-0.1-0.1-0.2-0.1c-0.1-0.1-0.1-0.1-0.1-0.2c0-0.1,0-0.2,0-0.2v-18.9c0-0.8-0.1-1.7-0.4-2.4
		c-0.3-0.6-0.7-1.1-1.2-1.5c-0.6-0.4-1.2-0.6-1.9-0.7c-0.8-0.1-1.5-0.2-2.3-0.2h-5.8c-0.5,0-0.9,0.2-1.2,0.5
		c-0.2,0.1-0.3,0.3-0.4,0.4c-0.1,0.2-0.2,0.4-0.2,0.6L152.8,222.9z"/>
	<path class="st3" d="M199.9,193.2v-10.5c0-0.1,0-0.2,0-0.2c0-0.1,0.1-0.1,0.1-0.2c0.1-0.1,0.1-0.1,0.2-0.1c0.1,0,0.2,0,0.2,0h6.1
		c0.1,0,0.2,0,0.2,0c0.1,0,0.1,0.1,0.2,0.1c0.1,0.1,0.1,0.1,0.1,0.2s0,0.2,0,0.2v41.5c0,0.1,0,0.2,0,0.2c0,0.1-0.1,0.1-0.1,0.2
		c-0.1,0.1-0.1,0.1-0.2,0.1c-0.1,0-0.2,0-0.2,0H188c-1.7,0-3.5-0.5-4.9-1.5c-1.4-1-2.5-2.3-3.3-3.7c-0.9-1.5-1.5-3.2-1.9-4.9
		c-0.4-1.7-0.6-3.4-0.6-5.2c0-2.2,0.2-4.3,0.6-6.4c0.3-1.8,1-3.4,1.9-5c0.8-1.3,2-2.4,3.3-3.2c1.5-0.8,3.2-1.2,4.9-1.1h11.3
		c0.1,0,0.2,0,0.2,0s0.1-0.1,0.2-0.1c0.1-0.1,0.1-0.1,0.1-0.2C199.9,193.4,199.9,193.3,199.9,193.2L199.9,193.2z M199.9,201.7
		c0-0.1,0-0.2,0-0.2c0-0.1-0.1-0.1-0.1-0.2c-0.1-0.1-0.1-0.1-0.2-0.1c-0.1,0-0.2,0-0.2,0h-6.5c-1.1,0-2.3,0.1-3.4,0.3
		c-1,0.2-1.9,0.6-2.6,1.3c-0.8,0.7-1.4,1.6-1.7,2.6c-0.4,1.4-0.6,2.8-0.6,4.3c0,1.4,0.2,2.7,0.6,4c0.3,0.9,0.9,1.8,1.7,2.4
		c0.8,0.6,1.6,1,2.6,1.2c1.1,0.2,2.3,0.4,3.4,0.4h6.5c0.1,0,0.2,0,0.2,0c0.1,0,0.1-0.1,0.2-0.1c0.1-0.1,0.1-0.1,0.1-0.2s0-0.2,0-0.2
		L199.9,201.7z"/>
</g>
</svg>
