<svg width="60" height="60" viewBox="0 0 60 60" fill="none" xmlns="http://www.w3.org/2000/svg">
    <g clip-path="url(#clip0_2021_39443)">
        <rect width="60" height="60" fill="#0C0C4F"/>
        <rect width="60" height="60" rx="30" fill="#0C0C4F"/>
        <path fill-rule="evenodd" clip-rule="evenodd" d="M16.7671 22.9317L17.5077 20.6438C17.6582 20.1785 18.0255 19.8164 18.4925 19.6736L20.7916 18.9666C21.1098 18.8694 21.1124 18.4204 20.7968 18.3181L18.508 17.5775C18.0435 17.427 17.6814 17.0597 17.5378 16.5927L16.8316 14.2936C16.7344 13.9762 16.2855 13.9728 16.1831 14.2893L15.4425 16.5772C15.292 17.0416 14.9247 17.4038 14.4577 17.5474L12.1586 18.2536C11.8404 18.3516 11.8369 18.7998 12.1534 18.9021L14.4422 19.6426C14.9067 19.7932 15.2688 20.1613 15.4124 20.6283L16.1186 22.9266C16.2158 23.2448 16.6647 23.2483 16.7671 22.9317Z" fill="#FAFAFA"/>
        <path fill-rule="evenodd" clip-rule="evenodd" d="M53.1077 21.6012C52.1599 20.5413 50.6808 19.9446 49.2427 19.6999C47.7932 19.4648 46.273 19.4866 44.8422 19.7409C41.9466 20.2307 39.3161 21.4296 37.0217 22.9087C35.8302 23.6346 34.8142 24.4745 33.7615 25.3299C33.2543 25.7625 32.7919 26.2232 32.3103 26.6773L30.9944 27.9866C29.5646 29.4812 28.1552 30.8425 26.7917 31.9708C25.4225 33.094 24.1425 33.947 22.8811 34.5427C21.6204 35.1415 20.2715 35.4936 18.5134 35.55C16.7706 35.6115 14.7087 35.2969 12.5033 34.7778C10.2859 34.2609 7.95746 33.5242 5.35547 32.8902C6.26337 35.4089 7.63053 37.6347 9.38584 39.6695C11.1617 41.6689 13.3793 43.4909 16.228 44.6894C19.0356 45.9145 22.5638 46.3542 25.8628 45.6908C29.1706 45.054 32.0733 43.5236 34.4196 41.7532C36.7719 39.965 38.6751 37.9279 40.2795 35.8102C40.7223 35.225 40.9566 34.8976 41.2771 34.4403L42.163 33.128C42.7786 32.3164 43.3391 31.3922 43.9482 30.588C45.1429 28.9038 46.3209 27.2215 47.6895 25.6716C48.3784 24.8855 49.1048 24.1335 49.9623 23.4109C50.3899 23.0582 50.852 22.713 51.3639 22.4021C51.8834 22.0667 52.4322 21.8041 53.1077 21.6012Z" fill="url(#paint0_linear_2021_39443)"/>
        <path fill-rule="evenodd" clip-rule="evenodd" d="M53.1077 21.6001C52.0896 19.0308 50.1966 16.868 47.6557 15.272C45.1304 13.6936 41.623 12.888 38.1472 13.5747C36.4303 13.9068 34.7668 14.5461 33.3069 15.3975C31.8537 16.2455 30.5515 17.2664 29.4241 18.3615C28.8613 18.9109 28.3505 19.484 27.843 20.0604L26.5276 21.7374L24.496 24.437C21.9061 27.9103 19.117 31.9808 14.54 33.1869C10.0467 34.371 8.09789 33.3224 5.35547 32.8891C5.85692 34.1837 6.47804 35.441 7.32009 36.547C8.14646 37.6754 9.12256 38.7352 10.3361 39.6439C10.9493 40.0802 11.5968 40.5109 12.3159 40.8762C13.0317 41.229 13.8037 41.5396 14.6277 41.7731C16.2667 42.2224 18.1119 42.38 19.8985 42.1381C21.6859 41.8996 23.3944 41.3334 24.8878 40.5811C26.3922 39.8357 27.7027 38.9281 28.8729 37.9704C31.199 36.0386 33.0084 33.9042 34.5367 31.7467C35.3055 30.668 36.0033 29.5689 36.6487 28.4695L37.4083 27.1607C37.6405 26.7781 37.8754 26.3932 38.1138 26.0347C39.0765 24.5943 40.0179 23.4394 41.1613 22.5725C42.2887 21.6832 43.859 21.0262 45.9571 20.8735C48.0465 20.7191 50.4586 21.0044 53.1077 21.6001Z" fill="#FAFAFA"/>
        <path fill-rule="evenodd" clip-rule="evenodd" d="M41.8008 42.948C41.8008 44.8353 43.3315 46.3657 45.2185 46.3657C47.1058 46.3657 48.6343 44.8353 48.6343 42.948C48.6343 41.061 47.1058 39.5303 45.2185 39.5303C43.3315 39.5303 41.8008 41.061 41.8008 42.948Z" fill="url(#paint1_linear_2021_39443)"/>
    </g>
    <defs>
        <linearGradient id="paint0_linear_2021_39443" x1="52.8525" y1="20.6997" x2="10.8237" y2="44.0522" gradientUnits="userSpaceOnUse">
            <stop stop-color="#EC796B"/>
            <stop offset="1" stop-color="#E175B1"/>
        </linearGradient>
        <linearGradient id="paint1_linear_2021_39443" x1="48.632" y1="40.5507" x2="41.7962" y2="41.2737" gradientUnits="userSpaceOnUse">
            <stop stop-color="#EC796B"/>
            <stop offset="1" stop-color="#E175B1"/>
        </linearGradient>
        <clipPath id="clip0_2021_39443">
            <rect width="60" height="60" fill="white"/>
        </clipPath>
    </defs>
</svg>
