<svg width="60" height="60" viewBox="0 0 60 60" fill="none" xmlns="http://www.w3.org/2000/svg">
    <g clip-path="url(#a)">
        <path fill="#0D0C1E" d="M0-3.335h106.667v66.667H0z"/>
        <g opacity=".35" filter="url(#b)">
            <ellipse cx="60.838" cy="31.365" rx="47.903" ry="18.645" transform="rotate(22.375 60.838 31.365)" fill="#3847A1"/>
        </g>
        <g filter="url(#c)">
            <ellipse cx="97.465" cy="24.339" rx="17.861" ry="32.611" transform="rotate(-15.705 97.465 24.34)" fill="#353197"/>
        </g>
        <g filter="url(#d)">
            <ellipse cx="117.976" cy="6.245" rx="73.37" ry="18.78" transform="rotate(48.251 117.976 6.245)" fill="#812A8E"/>
        </g>
        <g filter="url(#e)">
            <ellipse cx="97.465" cy="28.95" rx="17.861" ry="32.611" transform="rotate(-15.705 97.465 28.95)" fill="#4C68EE" fill-opacity=".46"/>
        </g>
        <g opacity=".35" filter="url(#f)">
            <ellipse cx="60.838" cy="31.365" rx="47.903" ry="18.645" transform="rotate(22.375 60.838 31.365)" fill="#00176A"/>
        </g>
        <g opacity=".35" filter="url(#g)">
            <ellipse cx="30.227" cy="31.365" rx="47.903" ry="18.645" transform="rotate(22.375 30.227 31.365)" fill="#00176A"/>
        </g>
        <g filter="url(#h)">
            <ellipse cx="57.522" cy="34.618" rx="17.861" ry="32.611" transform="rotate(-15.705 57.522 34.618)" fill="#1C4C84"/>
        </g>
        <g filter="url(#i)">
            <ellipse cx="74.997" cy="29.512" rx="51.455" ry="25.191" transform="rotate(-113.566 74.997 29.512)" fill="#00F0FF" fill-opacity=".54"/>
        </g>
        <g filter="url(#j)">
            <ellipse cx="82.84" cy="-1.824" rx="26.504" ry="18.71" transform="rotate(39.808 82.84 -1.824)" fill="#DABBD3"/>
        </g>
        <g filter="url(#k)">
            <ellipse cx="67.442" cy="36.141" rx="14.861" ry="25.322" transform="rotate(-36.44 67.442 36.141)" fill="#447489"/>
        </g>
        <g clip-path="url(#l)">
            <path d="M19.19 47.04q-.7 0-1.372-.127a1.547 1.547 0 1 1 .573-3.04c1.37.257 2.966-.17 4.494-1.203 1.524-1.03 2.76-2.523 3.392-4.096.974-2.424.993-3.827 1.018-5.77.013-1.027.028-2.192.181-3.667.172-1.661.498-4.141 1.342-6.484.87-2.413 2.135-4.331 3.865-5.862 2.23-1.975 5.343-3.282 9.002-3.776a1.547 1.547 0 0 1 .415 3.067c-2.126.287-5.13 1.045-7.366 3.027-3.017 2.67-3.806 6.729-4.18 10.348-.138 1.337-.152 2.38-.165 3.389-.027 2.105-.05 3.922-1.24 6.883-.858 2.132-2.509 4.138-4.53 5.505-1.755 1.185-3.638 1.805-5.43 1.805" fill="url(#m)"/>
        </g>
    </g>
    <defs>
        <filter id="b" x="-9.957" y="-19.657" width="141.59" height="102.043" filterUnits="userSpaceOnUse" color-interpolation-filters="sRGB">
            <feFlood flood-opacity="0" result="BackgroundImageFix"/>
            <feBlend in="SourceGraphic" in2="BackgroundImageFix" result="shape"/>
            <feGaussianBlur stdDeviation="12.963" result="effect1_foregroundBlur_1303_38628"/>
        </filter>
        <filter id="c" x="55.911" y="-29.651" width="83.109" height="107.981" filterUnits="userSpaceOnUse" color-interpolation-filters="sRGB">
            <feFlood flood-opacity="0" result="BackgroundImageFix"/>
            <feBlend in="SourceGraphic" in2="BackgroundImageFix" result="shape"/>
            <feGaussianBlur stdDeviation="11.111" result="effect1_foregroundBlur_1303_38628"/>
        </filter>
        <filter id="d" x="44.916" y="-72.139" width="146.12" height="156.769" filterUnits="userSpaceOnUse" color-interpolation-filters="sRGB">
            <feFlood flood-opacity="0" result="BackgroundImageFix"/>
            <feBlend in="SourceGraphic" in2="BackgroundImageFix" result="shape"/>
            <feGaussianBlur stdDeviation="11.111" result="effect1_foregroundBlur_1303_38628"/>
        </filter>
        <filter id="e" x="55.911" y="-25.041" width="83.109" height="107.981" filterUnits="userSpaceOnUse" color-interpolation-filters="sRGB">
            <feFlood flood-opacity="0" result="BackgroundImageFix"/>
            <feBlend in="SourceGraphic" in2="BackgroundImageFix" result="shape"/>
            <feGaussianBlur stdDeviation="11.111" result="effect1_foregroundBlur_1303_38628"/>
        </filter>
        <filter id="f" x="-9.957" y="-19.657" width="141.59" height="102.043" filterUnits="userSpaceOnUse" color-interpolation-filters="sRGB">
            <feFlood flood-opacity="0" result="BackgroundImageFix"/>
            <feBlend in="SourceGraphic" in2="BackgroundImageFix" result="shape"/>
            <feGaussianBlur stdDeviation="12.963" result="effect1_foregroundBlur_1303_38628"/>
        </filter>
        <filter id="g" x="-40.569" y="-19.657" width="141.59" height="102.043" filterUnits="userSpaceOnUse" color-interpolation-filters="sRGB">
            <feFlood flood-opacity="0" result="BackgroundImageFix"/>
            <feBlend in="SourceGraphic" in2="BackgroundImageFix" result="shape"/>
            <feGaussianBlur stdDeviation="12.963" result="effect1_foregroundBlur_1303_38628"/>
        </filter>
        <filter id="h" x="15.967" y="-19.373" width="83.109" height="107.981" filterUnits="userSpaceOnUse" color-interpolation-filters="sRGB">
            <feFlood flood-opacity="0" result="BackgroundImageFix"/>
            <feBlend in="SourceGraphic" in2="BackgroundImageFix" result="shape"/>
            <feGaussianBlur stdDeviation="11.111" result="effect1_foregroundBlur_1303_38628"/>
        </filter>
        <filter id="i" x="25.554" y="-37.243" width="98.887" height="133.51" filterUnits="userSpaceOnUse" color-interpolation-filters="sRGB">
            <feFlood flood-opacity="0" result="BackgroundImageFix"/>
            <feBlend in="SourceGraphic" in2="BackgroundImageFix" result="shape"/>
            <feGaussianBlur stdDeviation="9.259" result="effect1_foregroundBlur_1303_38628"/>
        </filter>
        <filter id="j" x="44.4" y="-38.877" width="76.882" height="74.106" filterUnits="userSpaceOnUse" color-interpolation-filters="sRGB">
            <feFlood flood-opacity="0" result="BackgroundImageFix"/>
            <feBlend in="SourceGraphic" in2="BackgroundImageFix" result="shape"/>
            <feGaussianBlur stdDeviation="7.407" result="effect1_foregroundBlur_1303_38628"/>
        </filter>
        <filter id="k" x="26.004" y="-8.288" width="82.874" height="88.858" filterUnits="userSpaceOnUse" color-interpolation-filters="sRGB">
            <feFlood flood-opacity="0" result="BackgroundImageFix"/>
            <feBlend in="SourceGraphic" in2="BackgroundImageFix" result="shape"/>
            <feGaussianBlur stdDeviation="11.111" result="effect1_foregroundBlur_1303_38628"/>
        </filter>
        <clipPath id="a">
            <path fill="#fff" d="M0 0h60v60H0z"/>
        </clipPath>
        <clipPath id="l">
            <path fill="#fff" d="M16.557 13.001H43.44V47.04H16.557z"/>
        </clipPath>
        <linearGradient id="m" x1="41.291" y1="10.718" x2="13.618" y2="47.948" gradientUnits="userSpaceOnUse">
            <stop stop-color="#68ECF2"/>
            <stop offset="1" stop-color="#3C4EAC"/>
        </linearGradient>
    </defs>
</svg>
