<svg width="1080" height="1080" viewBox="0 0 1080 1080" fill="none" xmlns="http://www.w3.org/2000/svg"><g clip-path="url(#a)"><rect width="1080" height="1080" rx="540" fill="#fff"/><path fill="#C4C4C4" d="M0 0h1920v1080H0z"/><path fill="#0D0C1E" d="M0-60h1920v1200H0z"/><g opacity=".35" filter="url(#b)"><ellipse cx="1095.1" cy="564.578" rx="862.26" ry="335.616" transform="rotate(22.375 1095.1 564.578)" fill="#3847A1"/></g><g filter="url(#c)"><ellipse cx="1754.38" cy="438.109" rx="321.5" ry="587" transform="rotate(-15.705 1754.38 438.109)" fill="#353197"/></g><g filter="url(#d)"><ellipse cx="2123.59" cy="112.404" rx="1320.67" ry="338.045" transform="rotate(48.251 2123.59 112.404)" fill="#812A8E"/></g><g filter="url(#e)"><ellipse cx="1754.38" cy="521.109" rx="321.5" ry="587" transform="rotate(-15.705 1754.38 521.109)" fill="#4C68EE" fill-opacity=".46"/></g><g opacity=".35" filter="url(#f)"><ellipse cx="1095.1" cy="564.578" rx="862.26" ry="335.616" transform="rotate(22.375 1095.1 564.578)" fill="#00176A"/></g><g opacity=".35" filter="url(#g)"><ellipse cx="544.1" cy="564.578" rx="862.26" ry="335.616" transform="rotate(22.375 544.1 564.578)" fill="#00176A"/></g><g filter="url(#h)"><ellipse cx="1035.39" cy="623.111" rx="321.5" ry="587" transform="rotate(-15.705 1035.39 623.111)" fill="#1C4C84"/></g><g filter="url(#i)"><ellipse cx="1349.9" cy="531.225" rx="926.184" ry="453.435" transform="rotate(-113.566 1349.9 531.225)" fill="#00F0FF" fill-opacity=".54"/></g><g filter="url(#j)"><ellipse cx="1491.09" cy="-32.857" rx="477.064" ry="336.788" transform="rotate(39.808 1491.09 -32.857)" fill="#DABBD3"/></g><g filter="url(#k)"><ellipse cx="1213.93" cy="650.569" rx="267.5" ry="455.797" transform="rotate(-36.44 1213.93 650.569)" fill="#447489"/></g><g clip-path="url(#l)"><path d="M345.39 846.7c-8.37 0-16.62-.75-24.69-2.27-15.12-2.85-25.06-17.41-22.21-32.53 2.85-15.12 17.41-25.06 32.53-22.21 24.65 4.64 53.38-3.04 80.9-21.64 27.42-18.54 49.67-45.41 61.05-73.72 17.54-43.64 17.87-68.9 18.32-103.86.24-18.5.51-39.46 3.27-66.02 3.09-29.9 8.95-74.54 24.15-116.7 15.66-43.45 38.42-77.97 69.56-105.52 40.15-35.56 96.19-59.07 162.05-67.97 15.24-2.06 29.27 8.63 31.33 23.87 2.06 15.24-8.62 29.27-23.87 31.33-38.26 5.17-92.33 18.82-132.59 54.49-54.3 48.05-68.5 121.12-75.22 186.26-2.5 24.07-2.75 42.84-2.98 61-.49 37.89-.92 70.61-22.34 123.9-15.42 38.37-45.14 74.49-81.54 99.09-31.57 21.34-65.47 32.5-97.71 32.5h-.01Z" fill="url(#m)"/></g></g><defs><filter id="b" x="-179.201" y="-353.809" width="2548.6" height="1836.77" filterUnits="userSpaceOnUse" color-interpolation-filters="sRGB"><feFlood flood-opacity="0" result="BackgroundImageFix"/><feBlend in="SourceGraphic" in2="BackgroundImageFix" result="shape"/><feGaussianBlur stdDeviation="233.333" result="effect1_foregroundBlur_1580_25827"/></filter><filter id="c" x="1006.41" y="-533.719" width="1495.95" height="1943.66" filterUnits="userSpaceOnUse" color-interpolation-filters="sRGB"><feFlood flood-opacity="0" result="BackgroundImageFix"/><feBlend in="SourceGraphic" in2="BackgroundImageFix" result="shape"/><feGaussianBlur stdDeviation="200" result="effect1_foregroundBlur_1580_25827"/></filter><filter id="d" x="808.514" y="-1298.51" width="2630.15" height="2821.83" filterUnits="userSpaceOnUse" color-interpolation-filters="sRGB"><feFlood flood-opacity="0" result="BackgroundImageFix"/><feBlend in="SourceGraphic" in2="BackgroundImageFix" result="shape"/><feGaussianBlur stdDeviation="200" result="effect1_foregroundBlur_1580_25827"/></filter><filter id="e" x="1006.41" y="-450.719" width="1495.95" height="1943.66" filterUnits="userSpaceOnUse" color-interpolation-filters="sRGB"><feFlood flood-opacity="0" result="BackgroundImageFix"/><feBlend in="SourceGraphic" in2="BackgroundImageFix" result="shape"/><feGaussianBlur stdDeviation="200" result="effect1_foregroundBlur_1580_25827"/></filter><filter id="f" x="-179.201" y="-353.809" width="2548.6" height="1836.77" filterUnits="userSpaceOnUse" color-interpolation-filters="sRGB"><feFlood flood-opacity="0" result="BackgroundImageFix"/><feBlend in="SourceGraphic" in2="BackgroundImageFix" result="shape"/><feGaussianBlur stdDeviation="233.333" result="effect1_foregroundBlur_1580_25827"/></filter><filter id="g" x="-730.201" y="-353.809" width="2548.6" height="1836.77" filterUnits="userSpaceOnUse" color-interpolation-filters="sRGB"><feFlood flood-opacity="0" result="BackgroundImageFix"/><feBlend in="SourceGraphic" in2="BackgroundImageFix" result="shape"/><feGaussianBlur stdDeviation="233.333" result="effect1_foregroundBlur_1580_25827"/></filter><filter id="h" x="287.414" y="-348.717" width="1495.95" height="1943.66" filterUnits="userSpaceOnUse" color-interpolation-filters="sRGB"><feFlood flood-opacity="0" result="BackgroundImageFix"/><feBlend in="SourceGraphic" in2="BackgroundImageFix" result="shape"/><feGaussianBlur stdDeviation="200" result="effect1_foregroundBlur_1580_25827"/></filter><filter id="i" x="459.918" y="-670.368" width="1779.97" height="2403.19" filterUnits="userSpaceOnUse" color-interpolation-filters="sRGB"><feFlood flood-opacity="0" result="BackgroundImageFix"/><feBlend in="SourceGraphic" in2="BackgroundImageFix" result="shape"/><feGaussianBlur stdDeviation="166.667" result="effect1_foregroundBlur_1580_25827"/></filter><filter id="j" x="799.153" y="-699.805" width="1383.87" height="1333.9" filterUnits="userSpaceOnUse" color-interpolation-filters="sRGB"><feFlood flood-opacity="0" result="BackgroundImageFix"/><feBlend in="SourceGraphic" in2="BackgroundImageFix" result="shape"/><feGaussianBlur stdDeviation="133.333" result="effect1_foregroundBlur_1580_25827"/></filter><filter id="k" x="468.076" y="-149.156" width="1491.71" height="1599.45" filterUnits="userSpaceOnUse" color-interpolation-filters="sRGB"><feFlood flood-opacity="0" result="BackgroundImageFix"/><feBlend in="SourceGraphic" in2="BackgroundImageFix" result="shape"/><feGaussianBlur stdDeviation="200" result="effect1_foregroundBlur_1580_25827"/></filter><clipPath id="a"><rect width="1080" height="1080" rx="540" fill="#fff"/></clipPath><clipPath id="l"><path fill="#fff" d="M298 234h483.9v612.7H298z"/></clipPath><linearGradient id="m" x1="743.212" y1="192.909" x2="245.115" y2="863.059" gradientUnits="userSpaceOnUse"><stop stop-color="#68ECF2"/><stop offset="1" stop-color="#3C4EAC"/></linearGradient></defs></svg>