<svg width="36" height="36" viewBox="0 0 36 36" fill="none" xmlns="http://www.w3.org/2000/svg"><path fill="url(#a)" d="M0 0h36v36H0z"/><path d="M21.126 9.656c.03.05-.01.114-.07.114-1.207 0-2.19.957-2.212 2.145a3.6 3.6 0 0 0-1.266-.012C17.55 10.72 16.57 9.77 15.366 9.77c-.06 0-.1-.063-.07-.115A3.38 3.38 0 0 1 18.211 8c1.244 0 2.33.665 2.915 1.656m3.577 7.348c.41.125.798-.236.643-.637-1.153-2.974-4.563-4.193-7.151-4.193-2.594 0-6.08 1.258-7.158 4.212-.145.398.241.747.646.623l6.204-1.901a.94.94 0 0 1 .55-.001z" fill="#fff"/><path d="m10.977 17.577 6.915-2.097a.94.94 0 0 1 .546 0l6.96 2.098c.58.175.978.71.978 1.318v6.323C26.35 26.763 24.963 28 23.42 28h-2.562a.46.46 0 0 1-.459-.458v-2.217c0-.873.517-1.664 1.316-2.013 1.072-.47 2.34-1.103 2.578-2.376a.76.76 0 0 0-.6-.888c-1.036-.206-2.184-.126-3.155.308-1.103.493-1.391 1.313-1.498 2.415l-.13 1.186c-.039.363-.38.641-.744.641-.377 0-.66-.287-.7-.662l-.128-1.165c-.091-.944-.257-1.86-1.232-2.297-1.113-.497-2.231-.663-3.42-.426a.763.763 0 0 0-.601.888c.24 1.284 1.498 1.903 2.578 2.376.8.35 1.316 1.14 1.316 2.013v2.216a.46.46 0 0 1-.458.459h-2.563c-1.543 0-2.93-1.237-2.957-2.78v-6.326c0-.606.397-1.141.977-1.317" fill="#fff"/><defs><linearGradient id="a" x1="-5.766" y1="-3.565" x2="36.587" y2="30.256" gradientUnits="userSpaceOnUse"><stop stop-color="#0933C0"/><stop offset="1" stop-color="#587EFF"/></linearGradient></defs></svg>
