<svg width="144" height="144" viewBox="0 0 144 144" fill="none" xmlns="http://www.w3.org/2000/svg">
<rect width="144" height="144" fill="#FFFBF5"/>
<path d="M91.3041 22H81.4021V110.882C53.6393 108.383 31.9021 85.0626 31.9021 56.6521V31.9021H51.7062V56.6521C51.7062 57.2999 51.7267 57.9374 51.7679 58.5749C52.5699 73.4228 62.7393 85.7824 76.4562 89.8748V79.3456C67.716 75.5307 61.6082 66.8112 61.6082 56.6623V22H22V56.6521C22 57.2999 22 57.9271 22.0308 58.5749C22.9871 91.5715 48.8065 118.347 81.4021 120.815C83.037 120.949 84.6925 121 86.3479 121H91.2938V31.9021H111.098V56.6521C111.098 66.8009 104.99 75.5205 96.25 79.3353V89.8646C110.563 85.5973 121 72.3329 121 56.6418V22H91.2938H91.3041Z" fill="#FF9300"/>
</svg>
