<svg width="34" height="34" viewBox="0 0 34 34" fill="none" xmlns="http://www.w3.org/2000/svg">
<rect width="34" height="34" fill="url(#paint0_linear_18103_24951)"/>
<g clip-path="url(#clip0_18103_24951)">
<rect x="0.5" y="0.5" width="33" height="33" rx="7.5" fill="#0C0C4F" stroke="url(#paint1_linear_18103_24951)"/>
<path fill-rule="evenodd" clip-rule="evenodd" d="M9.50152 12.9948L9.92116 11.6983C10.0065 11.4346 10.2146 11.2294 10.4792 11.1485L11.7821 10.7478C11.9624 10.6928 11.9638 10.4383 11.785 10.3803L10.488 9.96068C10.2248 9.8754 10.0196 9.66727 9.93822 9.40261L9.53806 8.0998C9.48299 7.91995 9.22857 7.91799 9.17055 8.09735L8.75091 9.39385C8.66561 9.65703 8.4575 9.86223 8.19284 9.94364L6.89002 10.3438C6.70969 10.3993 6.70773 10.6533 6.88709 10.7113L8.18406 11.1309C8.44726 11.2162 8.65246 11.4248 8.73385 11.6895L9.13402 12.9918C9.18908 13.1722 9.4435 13.1741 9.50152 12.9948Z" fill="#FAFAFA"/>
<path fill-rule="evenodd" clip-rule="evenodd" d="M30.0945 12.24C29.5574 11.6394 28.7192 11.3013 27.9043 11.1626C27.0829 11.0294 26.2215 11.0418 25.4107 11.1858C23.7699 11.4634 22.2793 12.1428 20.9791 12.9809C20.3039 13.3923 19.7282 13.8682 19.1317 14.353C18.8443 14.5981 18.5822 14.8592 18.3093 15.1165L17.5637 15.8584C16.7534 16.7054 15.9548 17.4768 15.1821 18.1162C14.4063 18.7526 13.6809 19.236 12.9661 19.5736C12.2517 19.9129 11.4874 20.1124 10.491 20.1443C9.5035 20.1792 8.3351 20.0009 7.08532 19.7068C5.82883 19.4139 4.50937 18.9964 3.03491 18.6371C3.54939 20.0644 4.32411 21.3257 5.31879 22.4787C6.32512 23.6117 7.58172 24.6442 9.19601 25.3233C10.787 26.0175 12.7863 26.2667 14.6557 25.8908C16.5301 25.5299 18.175 24.6627 19.5046 23.6595C20.8376 22.6462 21.916 21.4918 22.8252 20.2918C23.0761 19.9602 23.2089 19.7746 23.3905 19.5155L23.8925 18.7719C24.2414 18.312 24.559 17.7883 24.9041 17.3326C25.5811 16.3782 26.2487 15.4248 27.0242 14.5466C27.4146 14.1011 27.8262 13.675 28.3121 13.2655C28.5544 13.0657 28.8163 12.87 29.1064 12.6938C29.4008 12.5038 29.7117 12.355 30.0945 12.24Z" fill="url(#paint2_linear_18103_24951)"/>
<path fill-rule="evenodd" clip-rule="evenodd" d="M30.0945 12.2405C29.5176 10.7845 28.4449 9.55889 27.005 8.65451C25.574 7.76006 23.5865 7.30359 21.6169 7.6927C20.644 7.88088 19.7013 8.24318 18.8741 8.72563C18.0506 9.20617 17.3127 9.78465 16.6738 10.4052C16.3549 10.7166 16.0654 11.0413 15.7779 11.3679L15.0325 12.3182L13.8812 13.848C12.4136 15.8162 10.8331 18.1228 8.23947 18.8063C5.69328 19.4773 4.58895 18.883 3.03491 18.6376C3.31907 19.3712 3.67103 20.0836 4.1482 20.7104C4.61647 21.3498 5.1696 21.9503 5.85726 22.4652C6.20477 22.7125 6.57167 22.9565 6.97915 23.1635C7.3848 23.3635 7.82224 23.5395 8.28916 23.6718C9.21792 23.9264 10.2635 24.0157 11.276 23.8786C12.2888 23.7435 13.257 23.4226 14.1032 22.9963C14.9557 22.5739 15.6983 22.0596 16.3615 21.5169C17.6796 20.4223 18.7049 19.2128 19.571 17.9902C20.0066 17.3789 20.402 16.7561 20.7677 16.1331L21.1982 15.3914C21.3298 15.1746 21.4629 14.9565 21.598 14.7534C22.1435 13.9371 22.6769 13.2827 23.3249 12.7915C23.9638 12.2875 24.8536 11.9152 26.0425 11.8287C27.2265 11.7412 28.5934 11.9029 30.0945 12.2405Z" fill="#FAFAFA"/>
<path fill-rule="evenodd" clip-rule="evenodd" d="M23.6873 24.3371C23.6873 25.4066 24.5547 26.2738 25.624 26.2738C26.6935 26.2738 27.5596 25.4066 27.5596 24.3371C27.5596 23.2678 26.6935 22.4004 25.624 22.4004C24.5547 22.4004 23.6873 23.2678 23.6873 24.3371Z" fill="url(#paint3_linear_18103_24951)"/>
</g>
<defs>
<linearGradient id="paint0_linear_18103_24951" x1="5" y1="5.978e-07" x2="37" y2="43" gradientUnits="userSpaceOnUse">
<stop stop-color="#006BE9"/>
<stop offset="1" stop-color="#003C83"/>
</linearGradient>
<linearGradient id="paint1_linear_18103_24951" x1="17" y1="0" x2="17" y2="34" gradientUnits="userSpaceOnUse">
<stop stop-color="#E476A5"/>
<stop offset="1" stop-color="#EB7976"/>
</linearGradient>
<linearGradient id="paint2_linear_18103_24951" x1="29.9499" y1="11.7292" x2="6.13356" y2="24.9623" gradientUnits="userSpaceOnUse">
<stop stop-color="#EC796B"/>
<stop offset="1" stop-color="#E175B1"/>
</linearGradient>
<linearGradient id="paint3_linear_18103_24951" x1="27.5583" y1="22.9786" x2="23.6847" y2="23.3883" gradientUnits="userSpaceOnUse">
<stop stop-color="#EC796B"/>
<stop offset="1" stop-color="#E175B1"/>
</linearGradient>
<clipPath id="clip0_18103_24951">
<rect width="34" height="34" fill="white"/>
</clipPath>
</defs>
</svg>
