<svg width="161" height="160" viewBox="0 0 161 160" fill="none" xmlns="http://www.w3.org/2000/svg">
<path d="M80.6503 0C60.5444 0 44.1848 16.1923 44.1848 36.0926C44.1848 44.4663 47.148 52.6274 52.5313 59.0708L55.6992 62.7488L92.6472 107.715L95.8857 111.506C98.8313 115.034 100.387 119.322 100.387 123.907C100.387 134.651 91.5558 143.393 80.7008 143.393C69.8433 143.393 61.0143 134.651 61.0143 123.907V121.105C55.7977 123.612 50.043 125.225 44.2808 125.728C45.2433 144.788 61.2113 160 80.7008 160C100.807 160 117.166 143.808 117.166 123.907C117.166 115.536 114.203 107.375 108.757 100.854L105.612 97.1762L68.6534 52.1948L65.425 48.4443C62.5047 44.9288 60.9637 40.6582 60.9637 36.0926C60.9637 25.3486 69.7952 16.6073 80.6503 16.6073C91.5053 16.6073 100.337 25.3486 100.337 36.0926V38.4154C105.379 35.935 110.896 34.5324 117.06 34.1323C116.027 15.1396 100.092 0 80.6503 0" fill="#EDB500"/>
<path d="M40.9358 119.362C50.9547 119.237 61.3196 115.049 68.0822 108.353C71.4724 104.997 74.5467 101.502 77.4367 97.954L66.5943 84.7571C63.3481 88.9077 59.9883 92.8783 56.2192 96.6088C53.1221 99.6742 47.0542 102.767 40.4785 102.767C27.7718 102.767 17.4347 92.5357 17.4347 79.959C17.4347 67.3822 27.7718 57.1508 40.4785 57.1508C41.8932 57.1508 43.275 57.2758 44.619 57.5033C41.489 52.3376 39.5262 46.5618 38.8668 40.5859C17.6544 41.426 0.655762 58.761 0.655762 79.959C0.655762 101.537 18.2683 119.112 40.0112 119.362L40.9358 119.362Z" fill="#0B0E1E"/>
<path d="M120.376 40.5794C110.357 40.7045 99.9919 44.8925 93.2293 51.5885C89.8392 54.9439 86.7648 58.4395 83.8749 61.9874L94.7173 75.1843C97.9634 71.0337 101.323 67.0631 105.092 63.3326C108.189 60.2672 114.257 57.1742 120.833 57.1742C133.54 57.1742 143.877 67.4057 143.877 79.9824C143.877 92.5592 133.54 102.791 120.833 102.791C119.418 102.791 118.036 102.666 116.693 102.438C119.823 107.604 121.785 113.38 122.445 119.355C143.657 118.515 160.656 101.18 160.656 79.9824C160.656 58.4044 143.043 40.8294 121.3 40.5794L120.376 40.5794Z" fill="#0B0E1E"/>
</svg>
