<svg width="36" height="36" viewBox="0 0 36 36" fill="none" xmlns="http://www.w3.org/2000/svg">
<rect width="36" height="36" rx="8" fill="white"/>
<g clip-path="url(#clip0_18842_191576)">
<path d="M18.0274 4C14.5307 4 11.6855 6.83365 11.6855 10.3162C11.6855 11.7816 12.2009 13.2098 13.1371 14.3374L13.6881 14.981L20.1138 22.8501L20.677 23.5135C21.1893 24.1309 21.4598 24.8813 21.4598 25.6837C21.4598 27.5639 19.924 29.0938 18.0362 29.0938C16.1479 29.0938 14.6124 27.5639 14.6124 25.6837V25.1934C13.7052 25.6321 12.7044 25.9144 11.7022 26.0024C11.8696 29.3379 14.6467 32 18.0362 32C21.5329 32 24.3779 29.1664 24.3779 25.6837C24.3779 24.2188 23.8626 22.7906 22.9155 21.6494L22.3685 21.0058L15.941 13.1341L15.3795 12.4778C14.8716 11.8625 14.6036 11.1152 14.6036 10.3162C14.6036 8.43601 16.1395 6.90628 18.0274 6.90628C19.9152 6.90628 21.4511 8.43601 21.4511 10.3162V10.7227C22.328 10.2886 23.2875 10.0432 24.3595 9.97315C24.1798 6.64943 21.4085 4 18.0274 4Z" fill="#EDB500"/>
<path d="M11.1205 24.8884C12.8629 24.8665 14.6655 24.1336 15.8416 22.9618C16.4312 22.3745 16.9658 21.7629 17.4684 21.142L15.5828 18.8325C15.0183 19.5589 14.4339 20.2537 13.7784 20.9065C13.2398 21.443 12.1845 21.9842 11.0409 21.9842C8.83107 21.9842 7.03331 20.1938 7.03331 17.9928C7.03331 15.7919 8.83107 14.0014 11.0409 14.0014C11.287 14.0014 11.5273 14.0233 11.761 14.0631C11.2167 13.1591 10.8753 12.1483 10.7606 11.1025C7.07152 11.2496 4.11523 14.2832 4.11523 17.9928C4.11523 21.769 7.17828 24.8446 10.9597 24.8884H11.1205Z" fill="#0B0E1E"/>
<path d="M24.9359 11.1016C23.1935 11.1235 21.3908 11.8564 20.2147 13.0282C19.6252 13.6154 19.0905 14.2271 18.5879 14.848L20.4735 17.1574C21.0381 16.4311 21.6223 15.7362 22.2778 15.0834C22.8164 14.5469 23.8717 14.0057 25.0154 14.0057C27.2253 14.0057 29.023 15.7962 29.023 17.9971C29.023 20.198 27.2253 21.9886 25.0154 21.9886C24.7693 21.9886 24.529 21.9667 24.2954 21.9268C24.8397 22.8309 25.181 23.8417 25.2957 24.8873C28.9848 24.7403 31.9411 21.7067 31.9411 17.9971C31.9411 14.2209 28.878 11.1453 25.0966 11.1016H24.9359Z" fill="#0B0E1E"/>
</g>
<defs>
<clipPath id="clip0_18842_191576">
<rect width="28" height="28" fill="white" transform="translate(4 4)"/>
</clipPath>
</defs>
</svg>
