<svg width="36" height="36" viewBox="0 0 36 36" fill="none" xmlns="http://www.w3.org/2000/svg">
<g clip-path="url(#clip0_18842_191585)">
<rect width="36" height="36" fill="#DAE036"/>
<g clip-path="url(#clip1_18842_191585)">
<path d="M28.038 17.3094C29.5108 17.3094 30.7048 16.1009 30.7048 14.6103C30.7048 13.1196 29.5108 11.9111 28.038 11.9111C26.5651 11.9111 25.3711 13.1196 25.3711 14.6103C25.3711 16.1009 26.5651 17.3094 28.038 17.3094Z" fill="#5220FA"/>
<path d="M7.95982 24.0877C9.43268 24.0877 10.6267 22.8793 10.6267 21.3886C10.6267 19.8979 9.43268 18.6895 7.95982 18.6895C6.48696 18.6895 5.29297 19.8979 5.29297 21.3886C5.29297 22.8793 6.48696 24.0877 7.95982 24.0877Z" fill="#5220FA"/>
<path d="M21.3422 18.689C19.12 18.689 17.3122 16.8593 17.3122 14.6103C17.3122 13.1221 16.1158 11.9111 14.6454 11.9111C13.175 11.9111 11.9785 13.1221 11.9785 14.6103C11.9785 16.0984 13.175 17.3094 14.6454 17.3094C16.8676 17.3094 18.6754 19.139 18.6754 21.3881C18.6754 22.8763 19.8718 24.0872 21.3422 24.0872C22.8126 24.0872 24.0091 22.8763 24.0091 21.3881C24.0091 19.8999 22.8126 18.689 21.3422 18.689Z" fill="#5220FA"/>
</g>
</g>
<defs>
<clipPath id="clip0_18842_191585">
<rect width="36" height="36" rx="8.47059" fill="white"/>
</clipPath>
<clipPath id="clip1_18842_191585">
<rect width="25.4118" height="12.7059" fill="white" transform="translate(5.29492 11.6475)"/>
</clipPath>
</defs>
</svg>
