<svg width="60" height="60" viewBox="0 0 60 60" fill="none" xmlns="http://www.w3.org/2000/svg">
    <rect width="60" height="60" fill="#F35800"/>
    <g clip-path="url(#a)">
        <path d="M18.428 24.782q-2.023 0-3.336 1.042V21H12v15.513h3.092v-.86q1.29 1.02 3.335 1.019a5.5 5.5 0 0 0 2.202-.431 5.6 5.6 0 0 0 1.857-1.279q1.7-1.71 1.701-4.2a5.9 5.9 0 0 0-.422-2.294 5.8 5.8 0 0 0-1.279-1.938q-1.701-1.746-4.058-1.748m1.868 8.199a2.9 2.9 0 0 1-.974.682 2.8 2.8 0 0 1-1.162.224 3 3 0 0 1-1.205-.22 3 3 0 0 1-1.02-.687 3 3 0 0 1-.67-1.016 3.1 3.1 0 0 1-.22-1.203 3 3 0 0 1 .228-1.201c.157-.38.389-.723.682-1.008a3 3 0 0 1 1.01-.69c.38-.158.787-.235 1.197-.228.4-.007.796.07 1.164.229.367.158.699.393.972.69.282.29.503.635.652 1.015s.222.784.215 1.193a3.07 3.07 0 0 1-.87 2.218zm8.027-6.5v-1.586h-3.09v11.618h3.116v-5.297q0-1.563.824-2.436.823-.873 2.467-.871v-3.174q-2.07.002-3.316 1.746zm4.427 10.032h3.09V24.895h-3.09v11.62zm0-12.615h3.09V21.89h-3.09zm13.231.997v.907q-1.288-1.02-3.336-1.019a5.5 5.5 0 0 0-2.202.43 5.6 5.6 0 0 0-1.856 1.28q-1.703 1.71-1.703 4.202a5.9 5.9 0 0 0 .423 2.294 5.8 5.8 0 0 0 1.28 1.938q1.7 1.744 4.058 1.743 2.024 0 3.335-1.041v4.87h3.092V24.895zm-.87 8.075a3 3 0 0 1-1.01.69c-.38.158-.787.236-1.197.228-.4.008-.795-.07-1.163-.228a2.85 2.85 0 0 1-.971-.69 3.1 3.1 0 0 1-.645-1.017 3.1 3.1 0 0 1-.207-1.191 3.1 3.1 0 0 1 .861-2.225c.275-.293.606-.525.974-.681a2.8 2.8 0 0 1 1.16-.224 2.98 2.98 0 0 1 2.225.905c.289.289.517.635.67 1.017s.227.791.219 1.204a3.02 3.02 0 0 1-.915 2.212" fill="#fff"/>
    </g>
    <defs>
        <clipPath id="a">
            <path fill="#fff" d="M12 21h37.5v19.5H12z"/>
        </clipPath>
    </defs>
</svg>
