<svg width="1500" height="500" viewBox="0 0 1500 500" fill="none" xmlns="http://www.w3.org/2000/svg">
<rect width="1500" height="500" fill="black"/>
<g clip-path="url(#clip0_7857_67082)">
<path fill-rule="evenodd" clip-rule="evenodd" d="M236.702 148C233.425 148 230.77 150.682 230.77 153.991V346.107C230.77 349.415 233.425 352.098 236.702 352.098H426.93C430.206 352.098 432.862 349.415 432.862 346.107V153.991C432.862 150.682 430.206 148 426.93 148H236.702ZM262.581 185.968H282.629C282.929 185.968 283.194 186.166 283.281 186.457C284.679 191.166 285.349 194.021 286.332 198.885C286.364 199.045 286.504 199.161 286.666 199.161H374.463C374.628 199.161 374.768 199.042 374.798 198.879C375.699 194.044 376.381 191.215 377.799 186.456C377.886 186.166 378.151 185.968 378.45 185.968H398.5C391.933 200.762 390.651 210.384 389.328 228.08H398.5V237.435H388.635C387.721 267.839 387.619 284.517 387.781 316.18H369.72C369.72 302.36 369.898 291.059 370.082 279.402V279.399V279.397C370.276 267.062 370.477 254.327 370.48 237.784C370.48 237.594 370.323 237.435 370.135 237.435H290.9C290.709 237.435 290.55 237.599 290.555 237.792C291.308 269.112 291.348 285.06 291.307 316.18H273.245C273.388 285.411 273.38 268.949 272.392 237.435H262.581V228.08H271.859C270.181 209.193 268.462 199.58 262.581 185.968ZM288.63 215.989L289.697 227.163C289.714 227.339 289.861 227.474 290.036 227.474H327.351C327.539 227.474 327.692 227.32 327.692 227.13V215.956C327.692 215.766 327.539 215.612 327.351 215.612H288.969C288.768 215.612 288.611 215.787 288.63 215.989ZM371.411 227.163L372.455 215.988C372.474 215.786 372.317 215.612 372.117 215.612H334.548C334.36 215.612 334.208 215.766 334.208 215.956V227.13C334.208 227.32 334.36 227.474 334.548 227.474H371.072C371.248 227.474 371.394 227.339 371.411 227.163Z" fill="white"/>
<path d="M596.51 239.239H699.51V256.676H596.51V239.239ZM696.952 182.918H719.504V312.997H696.952V182.918ZM576.283 182.918H598.603V312.997H576.283V182.918Z" fill="white"/>
<path d="M775.173 280.727V263.49H856.084V280.727H775.173ZM742.391 312.997L804.003 182.918H827.718L889.797 312.997H865.616L811.676 195.545H820.046L766.338 312.997H742.391Z" fill="white"/>
<path d="M917.199 182.918H939.52V312.997H917.199V182.918Z" fill="white"/>
<path d="M1025.77 249.661L1025.53 239.038L1117.37 312.997H1085.98L1003.21 244.851L1076.45 182.918H1107.37L1025.77 249.661ZM980.893 182.918H1003.21V312.997H980.893V182.918Z" fill="white"/>
<path d="M1197.2 315.201C1181.55 315.201 1167.6 312.461 1155.35 306.982C1143.26 301.504 1133.73 293.754 1126.75 283.733C1119.93 273.711 1116.52 261.819 1116.52 248.056C1116.52 234.16 1119.93 222.201 1126.75 212.179C1133.73 202.158 1143.26 194.408 1155.35 188.93C1167.6 183.451 1181.55 180.712 1197.2 180.712C1213.01 180.712 1226.96 183.451 1239.05 188.93C1251.14 194.408 1260.67 202.158 1267.65 212.179C1274.63 222.201 1278.11 234.16 1278.11 248.056C1278.11 261.819 1274.63 273.711 1267.65 283.733C1260.67 293.754 1251.14 301.504 1239.05 306.982C1226.96 312.461 1213.01 315.201 1197.2 315.201ZM1197.2 297.763C1208.36 297.763 1218.28 295.892 1226.96 292.15C1235.64 288.409 1242.54 282.864 1247.66 275.516C1252.77 268.166 1255.33 259.013 1255.33 248.056C1255.33 237.099 1252.77 227.946 1247.66 220.597C1242.54 213.248 1235.64 207.703 1226.96 203.962C1218.28 200.087 1208.36 198.149 1197.2 198.149C1186.35 198.149 1176.51 200.087 1167.67 203.962C1158.84 207.703 1151.86 213.248 1146.75 220.597C1141.63 227.946 1139.08 237.099 1139.08 248.056C1139.08 259.013 1141.63 268.166 1146.75 275.516C1151.86 282.864 1158.84 288.409 1167.67 292.15C1176.51 295.892 1186.35 297.763 1197.2 297.763Z" fill="white"/>
</g>
<defs>
<clipPath id="clip0_7857_67082">
<rect width="1047.34" height="204.142" fill="white" transform="translate(230.77 148)"/>
</clipPath>
</defs>
</svg>
