<svg width="60" height="60" viewBox="0 0 60 60" fill="none" xmlns="http://www.w3.org/2000/svg">
<g id="logo-primary 1" clip-path="url(#clip0_7857_67050)">
<path id="Vector" d="M60 0H0V60H60V0Z" fill="black"/>
<path id="Vector_2" fill-rule="evenodd" clip-rule="evenodd" d="M18.0251 14.9624H13.3242C14.7675 18.2698 15.1893 20.6052 15.6008 25.194H13.3242V27.4671H15.7317C15.9742 35.1238 15.9762 41.1571 15.941 48.6329H20.373C20.3829 41.1216 20.3732 35.2567 20.1921 27.7047C20.1889 27.5751 20.2958 27.4671 20.4255 27.4671H39.5666C39.6941 27.4671 39.8 27.5714 39.8 27.6989C39.7982 31.6676 39.7495 35.2533 39.7023 38.7277V38.7279C39.6572 42.0523 39.6135 45.2747 39.6135 48.6329H44.0454C44.0055 40.9397 44.0307 34.854 44.2548 27.4671H46.6753V25.194H44.4248C44.7496 20.8946 45.0641 18.5567 46.6753 14.9624H41.9742C41.7709 14.9624 41.5912 15.0954 41.5335 15.2904C41.2383 16.286 41.0789 16.9472 40.8824 17.9793C40.8616 18.0884 40.7662 18.1679 40.6552 18.1679H19.3543C19.2446 18.1679 19.1501 18.0904 19.1279 17.9828C18.9145 16.9437 18.7566 16.2771 18.4658 15.2908C18.4083 15.0956 18.2285 14.9624 18.0251 14.9624ZM19.9652 24.8384L19.7318 22.4179C19.7188 22.2823 19.8253 22.1649 19.9615 22.1649H29.0702C29.1976 22.1649 29.301 22.2682 29.301 22.3957V24.8162C29.301 24.9436 29.1976 25.047 29.0702 25.047H20.1949C20.0761 25.047 19.9766 24.9566 19.9652 24.8384ZM40.2697 22.4174L40.0412 24.8379C40.0301 24.9564 39.9306 25.047 39.8115 25.047H31.1306C31.0032 25.047 30.8999 24.9436 30.8999 24.8162V22.3956C30.8999 22.2682 31.0032 22.1649 31.1306 22.1649H40.04C40.176 22.1649 40.2825 22.2819 40.2697 22.4174Z" fill="url(#paint0_linear_7857_67050)"/>
<path id="Vector_3" d="M13.3235 14.9624V14.8452H13.1445L13.2161 15.0093L13.3235 14.9624ZM15.6001 25.194V25.3112H15.7283L15.7168 25.1836L15.6001 25.194ZM13.3235 25.194V25.0769H13.2063V25.194H13.3235ZM13.3235 27.4671H13.2063V27.5843H13.3235V27.4671ZM15.731 27.4671L15.848 27.4635L15.8444 27.3499H15.731V27.4671ZM15.9403 48.6329L15.8231 48.6324L15.8225 48.7501H15.9403V48.6329ZM20.3723 48.6329V48.7501H20.4893L20.4895 48.6331L20.3723 48.6329ZM39.7016 38.7277L39.8187 38.7308V38.7293L39.7016 38.7277ZM39.7016 38.7279L39.5844 38.7247V38.7263L39.7016 38.7279ZM39.6127 48.6329H39.4955V48.7501H39.6127V48.6329ZM44.0446 48.6329V48.7501H44.1624L44.1618 48.6324L44.0446 48.6329ZM44.2541 27.4671V27.3499H44.1403L44.1369 27.4636L44.2541 27.4671ZM46.6746 27.4671V27.5843H46.7918V27.4671H46.6746ZM46.6746 25.194H46.7918V25.0769H46.6746V25.194ZM44.4241 25.194L44.3073 25.1853L44.2978 25.3112H44.4241V25.194ZM46.6746 14.9624L46.7814 15.0103L46.8555 14.8452H46.6746V14.9624ZM13.3235 15.0796H18.0243V14.8452H13.3235V15.0796ZM15.7168 25.1836C15.3048 20.589 14.8814 18.2394 13.4309 14.9155L13.2161 15.0093C14.6521 18.3001 15.0723 20.6214 15.4834 25.2045L15.7168 25.1836ZM13.3235 25.3112H15.6001V25.0769H13.3235V25.3112ZM13.4407 27.4671V25.194H13.2063V27.4671H13.4407ZM15.731 27.3499H13.3235V27.5843H15.731V27.3499ZM16.0575 48.6335C16.0926 41.1572 16.0906 35.1223 15.848 27.4635L15.6138 27.4709C15.8561 35.1253 15.8582 41.157 15.8231 48.6324L16.0575 48.6335ZM20.3723 48.5158H15.9403V48.7501H20.3723V48.5158ZM20.0742 27.7075C20.2552 35.258 20.265 41.1217 20.2551 48.6328L20.4895 48.6331C20.4993 41.1215 20.4896 35.2554 20.3086 27.7019L20.0742 27.7075ZM20.4248 27.3499C20.2303 27.3499 20.0695 27.5111 20.0742 27.7075L20.3086 27.7019C20.307 27.639 20.3599 27.5843 20.4248 27.5843V27.3499ZM39.5659 27.3499H20.4248V27.5843H39.5659V27.3499ZM39.9165 27.6989C39.9166 27.5056 39.757 27.3499 39.5659 27.3499V27.5843C39.6297 27.5843 39.6821 27.6373 39.6821 27.6988L39.9165 27.6989ZM39.8187 38.7293C39.866 35.2549 39.9146 31.6685 39.9165 27.6989L39.6821 27.6988C39.6802 31.6667 39.6316 35.2517 39.5844 38.7262L39.8187 38.7293ZM39.8187 38.7308L39.5844 38.7246V38.7247L39.8187 38.7308ZM39.7299 48.6329C39.7299 45.2755 39.7736 42.0538 39.8187 38.7293L39.5844 38.7263C39.5393 42.0505 39.4955 45.2738 39.4955 48.6329H39.7299ZM44.0446 48.5158H39.6127V48.7501H44.0446V48.5158ZM44.1369 27.4636C43.9128 34.8524 43.8876 40.9397 43.9275 48.6335L44.1618 48.6324C44.122 40.9398 44.1472 34.8557 44.3711 27.4708L44.1369 27.4636ZM46.6746 27.3499H44.2541V27.5843H46.6746V27.3499ZM46.5574 25.194V27.4671H46.7918V25.194H46.5574ZM44.4241 25.3112H46.6746V25.0769H44.4241V25.3112ZM46.5676 14.9145C44.9483 18.527 44.6323 20.8807 44.3073 25.1853L44.5409 25.2028C44.8652 20.9085 45.1786 18.5864 46.7814 15.0103L46.5676 14.9145ZM41.9735 15.0796H46.6746V14.8452H41.9735V15.0796ZM41.645 15.3237C41.6879 15.179 41.8216 15.0796 41.9735 15.0796V14.8452C41.7186 14.8452 41.493 15.012 41.4203 15.2571L41.645 15.3237ZM40.9967 18.0012C41.1925 16.9729 41.3511 16.3154 41.645 15.3237L41.4203 15.2571C41.124 16.2566 40.9638 16.9215 40.7666 17.9574L40.9967 18.0012ZM40.6544 18.2851C40.8222 18.2851 40.9655 18.1651 40.9967 18.0012L40.7666 17.9574C40.7561 18.0117 40.7088 18.0508 40.6544 18.0508V18.2851ZM19.3536 18.2851H40.6544V18.0508H19.3536V18.2851ZM19.0125 18.0063C19.0456 18.1681 19.1879 18.2851 19.3536 18.2851V18.0508C19.2999 18.0508 19.253 18.0126 19.242 17.9592L19.0125 18.0063ZM18.3526 15.3239C18.6423 16.3064 18.7995 16.9696 19.0125 18.0063L19.242 17.9592C19.0282 16.9177 18.8694 16.2479 18.5775 15.2576L18.3526 15.3239ZM18.0243 15.0796C18.1763 15.0796 18.3099 15.179 18.3526 15.3239L18.5775 15.2576C18.505 15.0122 18.2792 14.8452 18.0243 14.8452V15.0796ZM19.6145 22.4291L19.8478 24.8496L20.0811 24.8271L19.8478 22.4066L19.6145 22.4291ZM19.9607 22.0477C19.7554 22.0477 19.5948 22.2246 19.6145 22.4291L19.8478 22.4066C19.8413 22.3398 19.8937 22.2821 19.9607 22.2821V22.0477ZM29.0695 22.0477H19.9607V22.2821H29.0695V22.0477ZM29.4174 22.3957C29.4174 22.2035 29.2617 22.0477 29.0695 22.0477V22.2821C29.1322 22.2821 29.183 22.3329 29.183 22.3957H29.4174ZM29.4174 24.8162V22.3957H29.183V24.8162H29.4174ZM29.0695 25.1642C29.2617 25.1642 29.4174 25.0084 29.4174 24.8162H29.183C29.183 24.8789 29.1322 24.9298 29.0695 24.9298V25.1642ZM20.1942 25.1642H29.0695V24.9298H20.1942V25.1642ZM19.8478 24.8496C19.865 25.028 20.0149 25.1642 20.1942 25.1642V24.9298C20.1357 24.9298 20.0867 24.8854 20.0811 24.8271L19.8478 24.8496ZM40.1572 24.8489L40.3857 22.4284L40.1524 22.4064L39.9239 24.8269L40.1572 24.8489ZM39.8108 25.1642C39.9902 25.1642 40.1403 25.0276 40.1572 24.8489L39.9239 24.8269C39.9184 24.8851 39.8694 24.9298 39.8108 24.9298V25.1642ZM31.1299 25.1642H39.8108V24.9298H31.1299V25.1642ZM30.782 24.8162C30.782 25.0083 30.9378 25.1642 31.1299 25.1642V24.9298C31.0672 24.9298 31.0163 24.8789 31.0163 24.8162H30.782ZM30.782 22.3956V24.8162H31.0163V22.3956H30.782ZM31.1299 22.0477C30.9378 22.0477 30.782 22.2035 30.782 22.3956H31.0163C31.0163 22.3329 31.0672 22.2821 31.1299 22.2821V22.0477ZM40.0393 22.0477H31.1299V22.2821H40.0393V22.0477ZM40.3857 22.4284C40.4049 22.2242 40.2444 22.0477 40.0393 22.0477V22.2821C40.1062 22.2821 40.1586 22.3397 40.1524 22.4064L40.3857 22.4284Z" fill="url(#paint1_linear_7857_67050)"/>
</g>
<defs>
<linearGradient id="paint0_linear_7857_67050" x1="25.8318" y1="14.952" x2="27.357" y2="48.7082" gradientUnits="userSpaceOnUse">
<stop stop-color="#BCEBFF"/>
<stop offset="0.25" stop-color="#63D0FF"/>
<stop offset="0.2501" stop-color="#71D4FE"/>
<stop offset="0.546875" stop-color="#4DD4FF"/>
<stop offset="1" stop-color="#6BD3FF" stop-opacity="0"/>
</linearGradient>
<linearGradient id="paint1_linear_7857_67050" x1="25.7656" y1="25.8981" x2="32.3884" y2="41.6407" gradientUnits="userSpaceOnUse">
<stop stop-color="#DCF5FF"/>
<stop offset="1" stop-color="#68BCDF" stop-opacity="0"/>
</linearGradient>
<clipPath id="clip0_7857_67050">
<rect width="60" height="60" fill="white"/>
</clipPath>
</defs>
</svg>
