<svg width="90" height="90" viewBox="0 0 90 90" fill="none" xmlns="http://www.w3.org/2000/svg">
<path d="M42.9774 0.874905C67.344 -0.234345 87.9951 18.6217 89.1001 42.9883C90.2051 67.3552 71.3454 88.003 46.9785 89.1036C22.6177 90.2041 1.9761 71.3502 0.871377 46.9894C-0.233373 22.6288 18.617 1.98391 42.9774 0.874905Z" fill="#7E7E7E"/>
<path d="M43.772 3.75883C66.5517 3.08141 85.5665 21.0008 86.2401 43.7805C86.914 66.5605 68.9915 85.5721 46.2117 86.2424C23.437 86.9124 4.43028 68.9949 3.75667 46.2202C3.08303 23.4457 20.9975 4.4361 43.772 3.75883Z" fill="black"/>
<path d="M47.8504 26.2739H51.9487L51.949 29.2842L55.2898 29.2545L55.291 26.2739H59.4501V29.4384C61.0485 29.5384 62.2912 29.8161 63.8237 30.1992C68.3112 31.3211 70.561 35.3592 69.2854 39.7823C68.7785 41.5395 67.5876 42.6178 66.0223 43.487C69.0887 44.4542 71.3837 45.7567 71.8998 49.205C72.2823 51.7609 71.8704 54.6503 70.3382 56.7864C68.4285 59.4489 65.1871 60.1259 62.1498 60.6175C61.2543 60.7153 60.3482 60.7864 59.4501 60.8631L59.4496 63.9581H55.2821L55.2815 60.9578L51.9537 60.9109C51.9221 61.9114 51.9418 62.9539 51.9473 63.9581H47.7923L47.7901 60.827L41.314 60.8123C41.2935 59.6464 41.3321 58.3692 41.3462 57.195H44.8212V33.1353L41.3546 33.1009C41.3462 31.8842 41.3398 30.675 41.3826 29.4586L47.7876 29.4381C47.7798 28.5111 47.731 27.1534 47.8504 26.2739Z" fill="#FDFDFD"/>
<path d="M53.2327 46.6871C56.1816 46.5602 61.5755 46.5277 63.2861 49.4677C63.7858 50.3263 63.8336 51.5132 63.5563 52.4563C63.2233 53.5882 62.36 54.2171 61.3697 54.7616C58.5283 56.0388 55.0997 55.9118 52.0413 55.8796C51.9813 52.8971 52.0374 49.7099 52.0386 46.7088C52.4336 46.7105 52.8372 46.6966 53.2327 46.6871Z" fill="black"/>
<path d="M52.1429 34.1774C54.6804 34.1485 59.0815 33.8677 60.9274 35.9654C62.3643 37.5985 62.0043 39.7827 60.3604 41.176C58.2621 42.6779 54.5668 42.5424 52.061 42.5035L52.054 37.7571C52.0501 37.0466 51.984 34.7491 52.1429 34.1774Z" fill="black"/>
<path d="M18.0097 41.7681L24.7307 41.7683L31.4251 41.7681L38.1215 41.7686L38.1207 48.467L31.4251 48.4672V55.1786L24.729 55.1814L24.7287 48.4678L18.0093 48.4658C17.9789 46.2453 18.0025 43.9903 18.0097 41.7681Z" fill="black"/>
<path d="M18.0097 41.7681L24.7307 41.7683L24.7287 48.4678L18.0093 48.4658C17.9789 46.2453 18.0025 43.9903 18.0097 41.7681Z" fill="#FDFDFD"/>
<path d="M24.729 48.4678L31.4254 48.4673V55.1787L24.7293 55.1815L24.729 48.4678Z" fill="#FDFDFD"/>
<path d="M31.4253 41.7681L38.1217 41.7686L38.1208 48.467L31.4253 48.4672V41.7681Z" fill="#FDFDFD"/>
<path d="M24.7295 35.042L31.4242 35.0423L31.425 41.7681L24.7306 41.7684L24.7295 35.042Z" fill="#FDFDFD"/>
</svg>
